<svg xmlns="http://www.w3.org/2000/svg" xmlns:xlink="http://www.w3.org/1999/xlink" id="svg11252" width="76" height="27" version="1.1"><defs id="defs11254"><radialGradient id="radialGradient68155-2-3" cx="49" cy="488" r="38" gradientTransform="matrix(1 0 0 .34868 0 317.84)" gradientUnits="userSpaceOnUse"><stop id="stop39565-1-4" offset="0" style="stop-color:#fff"/><stop id="stop39567-7-9" offset="1" style="stop-color:#fff;stop-opacity:0"/></radialGradient><radialGradient id="radialGradient68157-0-8" cx="50.5" cy="487.5" r="10.5" gradientUnits="userSpaceOnUse"><stop id="stop39575-5-6" offset="0" style="stop-color:#fff"/><stop id="stop39577-1-2" offset="1" style="stop-color:#fff;stop-opacity:0"/></radialGradient></defs><g id="layer1" transform="translate(-337 -518.86)"><g id="g99967" transform="translate(326 44.862)"><rect id="rect99969" width="76" height="2" x="11" y="487" rx="0" ry="0" style="opacity:.49375;color:#000;fill:url(#radialGradient68155-2-3)"/><path id="path99971" d="m61 487.5c0 5.8-4.701 10.5-10.5 10.5s-10.5-4.7-10.5-10.5 4.701-10.5 10.5-10.5 10.5 4.701 10.5 10.5z" transform="matrix(1.2857 0 0 1.2857 -14.429 -139.29)" style="opacity:.43125;color:#000;fill:url(#radialGradient68157-0-8)"/><path id="path99973" d="m61 487.5c0 5.8-4.701 10.5-10.5 10.5s-10.5-4.7-10.5-10.5 4.701-10.5 10.5-10.5 10.5 4.701 10.5 10.5z" transform="matrix(.43590 0 0 .43590 28.487 275)" style="color:#000;fill:#fff"/></g></g></svg>