<svg xmlns="http://www.w3.org/2000/svg" xmlns:svg="http://www.w3.org/2000/svg" id="svg5369" width="96" height="48" version="1.1"><metadata id="metadata5375"/><g id="layer1" style="display:none"><rect id="rect12451" width="24" height="24" x="0" y="0" style="color:#000;display:inline"/><rect id="rect12453" width="24" height="24" x="0" y="24" style="color:#000;display:inline"/><rect id="rect12455" width="24" height="24" x="24" y="0" style="color:#000;display:inline"/><rect id="rect12457" width="24" height="24" x="24" y="24" style="color:#000;display:inline"/><rect id="rect12459" width="24" height="24" x="48" y="0" style="color:#000;display:inline"/><rect id="rect12461" width="24" height="24" x="48" y="24" style="color:#000;display:inline"/><rect id="rect12463" width="24" height="24" x="72" y="0" style="color:#000;display:inline"/><rect id="rect12465" width="24" height="24" x="72" y="24" style="color:#000;display:inline"/></g><g id="g4175"><g id="g3945" transform="matrix(-1,0,0,-1,24.000001,28)"><path style="opacity:.81999972;color:#000;fill:#fff;fill-opacity:1;fill-rule:nonzero;stroke:none;stroke-width:1.5;marker:none;visibility:visible;display:inline;overflow:visible;enable-background:accumulate" id="path3947" d="m 17,-8 c 0,0.680001 -0.16038,1.315279 -0.40625,1.90625 l 2.8125,1.15625 C 19.808288,-5.908105 20,-6.949425 20,-8 l -3,0 z"/><path style="opacity:.87999998;color:#000;fill:#fff;fill-opacity:1;fill-rule:nonzero;stroke:none;stroke-width:1.5;marker:none;visibility:visible;display:inline;overflow:visible;enable-background:accumulate" id="path3949" d="m 16.3125,-5.5 c -0.324621,0.555404 -0.775269,1.045298 -1.28125,1.4375 L 16.875,-1.65625 C 17.708477,-2.2958 18.412213,-3.090175 18.9375,-4 l -2.625,-1.5 z"/><path style="opacity:.93999999;color:#000;fill:#fff;fill-opacity:1;fill-rule:nonzero;stroke:none;stroke-width:1.5;marker:none;visibility:visible;display:inline;overflow:visible;enable-background:accumulate" id="path3951" d="m 14.5,-3.6875 c -0.556993,0.32555 -1.176477,0.535706 -1.84375,0.625 l 0.375,3 c 1.041587,-0.137128 2.058925,-0.474713 2.96875,-1 l -1.5,-2.625 z"/><path id="path3953" d="m 12,-3 c -0.680001,0 -1.315279,-0.16038 -1.90625,-0.40625 L 8.9375,-0.59375 C 9.908105,-0.191712 10.949425,0 12,0 l 0,-3 z" style="color:#000;fill:#fff;fill-opacity:1;fill-rule:nonzero;stroke:none;stroke-width:1.5;marker:none;visibility:visible;display:inline;overflow:visible;enable-background:accumulate"/><path id="path3955" d="M 9.5,-3.6875 C 8.944596,-4.012121 8.454702,-4.462769 8.0625,-4.96875 L 5.65625,-3.125 C 6.2958,-2.291523 7.090175,-1.587787 8,-1.0625 l 1.5,-2.625 z" style="opacity:.33999999;color:#000;fill:#fff;fill-opacity:1;fill-rule:nonzero;stroke:none;stroke-width:1.5;marker:none;visibility:visible;display:inline;overflow:visible;enable-background:accumulate"/><path id="path3957" d="M 7.6875,-5.5 C 7.36195,-6.056993 7.151794,-6.676477 7.0625,-7.34375 l -3,0.375 c 0.137128,1.041587 0.474713,2.058925 1,2.96875 l 2.625,-1.5 z" style="opacity:.4;color:#000;fill:#fff;fill-opacity:1;fill-rule:nonzero;stroke:none;stroke-width:1.5;marker:none;visibility:visible;display:inline;overflow:visible;enable-background:accumulate"/><path style="opacity:.46000001;color:#000;fill:#fff;fill-opacity:1;fill-rule:nonzero;stroke:none;stroke-width:1.5;marker:none;visibility:visible;display:inline;overflow:visible;enable-background:accumulate" id="path3959" d="M 7,-8 C 7,-8.680001 7.16038,-9.315279 7.40625,-9.90625 L 4.59375,-11.0625 C 4.191712,-10.091895 4,-9.050575 4,-8 l 3,0 z"/><path style="opacity:.51999996;color:#000;fill:#fff;fill-opacity:1;fill-rule:nonzero;stroke:none;stroke-width:1.5;marker:none;visibility:visible;display:inline;overflow:visible;enable-background:accumulate" id="path3961" d="m 7.6875,-10.5 c 0.324621,-0.555404 0.775269,-1.045298 1.28125,-1.4375 L 7.125,-14.34375 C 6.291523,-13.7042 5.587787,-12.909825 5.0625,-12 l 2.625,1.5 z"/><path style="opacity:.57999998;color:#000;fill:#fff;fill-opacity:1;fill-rule:nonzero;stroke:none;stroke-width:1.5;marker:none;visibility:visible;display:inline;overflow:visible;enable-background:accumulate" id="path3963" d="m 9.5,-12.3125 c 0.556993,-0.32555 1.176477,-0.535706 1.84375,-0.625 l -0.375,-3 c -1.041587,0.137128 -2.058925,0.474713 -2.96875,1 l 1.5,2.625 z"/><path id="path3965" d="m 12,-13 c 0.680001,0 1.315279,0.16038 1.90625,0.40625 l 1.15625,-2.8125 C 14.091895,-15.808288 13.050575,-16 12,-16 l 0,3 z" style="opacity:.63999999;color:#000;fill:#fff;fill-opacity:1;fill-rule:nonzero;stroke:none;stroke-width:1.5;marker:none;visibility:visible;display:inline;overflow:visible;enable-background:accumulate"/><path id="path3967" d="m 14.5,-12.3125 c 0.555404,0.324621 1.045298,0.775269 1.4375,1.28125 L 18.34375,-12.875 C 17.7042,-13.708477 16.909825,-14.412213 16,-14.9375 l -1.5,2.625 z" style="opacity:.7;color:#000;fill:#fff;fill-opacity:1;fill-rule:nonzero;stroke:none;stroke-width:1.5;marker:none;visibility:visible;display:inline;overflow:visible;enable-background:accumulate"/><path id="path3969" d="m 16.3125,-10.5 c 0.32555,0.556993 0.535706,1.176477 0.625,1.84375 l 3,-0.375 c -0.137128,-1.041587 -0.474713,-2.058925 -1,-2.96875 l -2.625,1.5 z" style="opacity:.76000001;color:#000;fill:#fff;fill-opacity:1;fill-rule:nonzero;stroke:none;stroke-width:1.5;marker:none;visibility:visible;display:inline;overflow:visible;enable-background:accumulate"/></g><g id="g3971" transform="matrix(-0.79335334,-0.60876143,0.60876143,-0.79335334,50.390333,36.95831)"><path id="path3973" d="m 17,-8 c 0,0.680001 -0.16038,1.315279 -0.40625,1.90625 l 2.8125,1.15625 C 19.808288,-5.908105 20,-6.949425 20,-8 l -3,0 z" style="opacity:.81999972;color:#000;fill:#fff;fill-opacity:1;fill-rule:nonzero;stroke:none;stroke-width:1.5;marker:none;visibility:visible;display:inline;overflow:visible;enable-background:accumulate"/><path id="path3975" d="m 16.3125,-5.5 c -0.324621,0.555404 -0.775269,1.045298 -1.28125,1.4375 L 16.875,-1.65625 C 17.708477,-2.2958 18.412213,-3.090175 18.9375,-4 l -2.625,-1.5 z" style="opacity:.87999998;color:#000;fill:#fff;fill-opacity:1;fill-rule:nonzero;stroke:none;stroke-width:1.5;marker:none;visibility:visible;display:inline;overflow:visible;enable-background:accumulate"/><path id="path3977" d="m 14.5,-3.6875 c -0.556993,0.32555 -1.176477,0.535706 -1.84375,0.625 l 0.375,3 c 1.041587,-0.137128 2.058925,-0.474713 2.96875,-1 l -1.5,-2.625 z" style="opacity:.93999999;color:#000;fill:#fff;fill-opacity:1;fill-rule:nonzero;stroke:none;stroke-width:1.5;marker:none;visibility:visible;display:inline;overflow:visible;enable-background:accumulate"/><path style="color:#000;fill:#fff;fill-opacity:1;fill-rule:nonzero;stroke:none;stroke-width:1.5;marker:none;visibility:visible;display:inline;overflow:visible;enable-background:accumulate" id="path3979" d="m 12,-3 c -0.680001,0 -1.315279,-0.16038 -1.90625,-0.40625 L 8.9375,-0.59375 C 9.908105,-0.191712 10.949425,0 12,0 l 0,-3 z"/><path style="opacity:.33999999;color:#000;fill:#fff;fill-opacity:1;fill-rule:nonzero;stroke:none;stroke-width:1.5;marker:none;visibility:visible;display:inline;overflow:visible;enable-background:accumulate" id="path3981" d="M 9.5,-3.6875 C 8.944596,-4.012121 8.454702,-4.462769 8.0625,-4.96875 L 5.65625,-3.125 C 6.2958,-2.291523 7.090175,-1.587787 8,-1.0625 l 1.5,-2.625 z"/><path style="opacity:.4;color:#000;fill:#fff;fill-opacity:1;fill-rule:nonzero;stroke:none;stroke-width:1.5;marker:none;visibility:visible;display:inline;overflow:visible;enable-background:accumulate" id="path3983" d="M 7.6875,-5.5 C 7.36195,-6.056993 7.151794,-6.676477 7.0625,-7.34375 l -3,0.375 c 0.137128,1.041587 0.474713,2.058925 1,2.96875 l 2.625,-1.5 z"/><path id="path3985" d="M 7,-8 C 7,-8.680001 7.16038,-9.315279 7.40625,-9.90625 L 4.59375,-11.0625 C 4.191712,-10.091895 4,-9.050575 4,-8 l 3,0 z" style="opacity:.46000001;color:#000;fill:#fff;fill-opacity:1;fill-rule:nonzero;stroke:none;stroke-width:1.5;marker:none;visibility:visible;display:inline;overflow:visible;enable-background:accumulate"/><path id="path3987" d="m 7.6875,-10.5 c 0.324621,-0.555404 0.775269,-1.045298 1.28125,-1.4375 L 7.125,-14.34375 C 6.291523,-13.7042 5.587787,-12.909825 5.0625,-12 l 2.625,1.5 z" style="opacity:.51999996;color:#000;fill:#fff;fill-opacity:1;fill-rule:nonzero;stroke:none;stroke-width:1.5;marker:none;visibility:visible;display:inline;overflow:visible;enable-background:accumulate"/><path id="path3989" d="m 9.5,-12.3125 c 0.556993,-0.32555 1.176477,-0.535706 1.84375,-0.625 l -0.375,-3 c -1.041587,0.137128 -2.058925,0.474713 -2.96875,1 l 1.5,2.625 z" style="opacity:.57999998;color:#000;fill:#fff;fill-opacity:1;fill-rule:nonzero;stroke:none;stroke-width:1.5;marker:none;visibility:visible;display:inline;overflow:visible;enable-background:accumulate"/><path style="opacity:.63999999;color:#000;fill:#fff;fill-opacity:1;fill-rule:nonzero;stroke:none;stroke-width:1.5;marker:none;visibility:visible;display:inline;overflow:visible;enable-background:accumulate" id="path3991" d="m 12,-13 c 0.680001,0 1.315279,0.16038 1.90625,0.40625 l 1.15625,-2.8125 C 14.091895,-15.808288 13.050575,-16 12,-16 l 0,3 z"/><path style="opacity:.7;color:#000;fill:#fff;fill-opacity:1;fill-rule:nonzero;stroke:none;stroke-width:1.5;marker:none;visibility:visible;display:inline;overflow:visible;enable-background:accumulate" id="path3993" d="m 14.5,-12.3125 c 0.555404,0.324621 1.045298,0.775269 1.4375,1.28125 L 18.34375,-12.875 C 17.7042,-13.708477 16.909825,-14.412213 16,-14.9375 l -1.5,2.625 z"/><path style="opacity:.76000001;color:#000;fill:#fff;fill-opacity:1;fill-rule:nonzero;stroke:none;stroke-width:1.5;marker:none;visibility:visible;display:inline;overflow:visible;enable-background:accumulate" id="path3995" d="m 16.3125,-10.5 c 0.32555,0.556993 0.535706,1.176477 0.625,1.84375 l 3,-0.375 c -0.137128,-1.041587 -0.474713,-2.058925 -1,-2.96875 l -2.625,1.5 z"/></g><g id="g3997" transform="matrix(0,-1,1,0,68.000001,48)"><path style="opacity:.81999972;color:#000;fill:#fff;fill-opacity:1;fill-rule:nonzero;stroke:none;stroke-width:1.5;marker:none;visibility:visible;display:inline;overflow:visible;enable-background:accumulate" id="path3999" d="m 17,-8 c 0,0.680001 -0.16038,1.315279 -0.40625,1.90625 l 2.8125,1.15625 C 19.808288,-5.908105 20,-6.949425 20,-8 l -3,0 z"/><path style="opacity:.87999998;color:#000;fill:#fff;fill-opacity:1;fill-rule:nonzero;stroke:none;stroke-width:1.5;marker:none;visibility:visible;display:inline;overflow:visible;enable-background:accumulate" id="path4001" d="m 16.3125,-5.5 c -0.324621,0.555404 -0.775269,1.045298 -1.28125,1.4375 L 16.875,-1.65625 C 17.708477,-2.2958 18.412213,-3.090175 18.9375,-4 l -2.625,-1.5 z"/><path style="opacity:.93999999;color:#000;fill:#fff;fill-opacity:1;fill-rule:nonzero;stroke:none;stroke-width:1.5;marker:none;visibility:visible;display:inline;overflow:visible;enable-background:accumulate" id="path4003" d="m 14.5,-3.6875 c -0.556993,0.32555 -1.176477,0.535706 -1.84375,0.625 l 0.375,3 c 1.041587,-0.137128 2.058925,-0.474713 2.96875,-1 l -1.5,-2.625 z"/><path id="path4005" d="m 12,-3 c -0.680001,0 -1.315279,-0.16038 -1.90625,-0.40625 L 8.9375,-0.59375 C 9.908105,-0.191712 10.949425,0 12,0 l 0,-3 z" style="color:#000;fill:#fff;fill-opacity:1;fill-rule:nonzero;stroke:none;stroke-width:1.5;marker:none;visibility:visible;display:inline;overflow:visible;enable-background:accumulate"/><path id="path4007" d="M 9.5,-3.6875 C 8.944596,-4.012121 8.454702,-4.462769 8.0625,-4.96875 L 5.65625,-3.125 C 6.2958,-2.291523 7.090175,-1.587787 8,-1.0625 l 1.5,-2.625 z" style="opacity:.33999999;color:#000;fill:#fff;fill-opacity:1;fill-rule:nonzero;stroke:none;stroke-width:1.5;marker:none;visibility:visible;display:inline;overflow:visible;enable-background:accumulate"/><path id="path4009" d="M 7.6875,-5.5 C 7.36195,-6.056993 7.151794,-6.676477 7.0625,-7.34375 l -3,0.375 c 0.137128,1.041587 0.474713,2.058925 1,2.96875 l 2.625,-1.5 z" style="opacity:.4;color:#000;fill:#fff;fill-opacity:1;fill-rule:nonzero;stroke:none;stroke-width:1.5;marker:none;visibility:visible;display:inline;overflow:visible;enable-background:accumulate"/><path style="opacity:.46000001;color:#000;fill:#fff;fill-opacity:1;fill-rule:nonzero;stroke:none;stroke-width:1.5;marker:none;visibility:visible;display:inline;overflow:visible;enable-background:accumulate" id="path4011" d="M 7,-8 C 7,-8.680001 7.16038,-9.315279 7.40625,-9.90625 L 4.59375,-11.0625 C 4.191712,-10.091895 4,-9.050575 4,-8 l 3,0 z"/><path style="opacity:.51999996;color:#000;fill:#fff;fill-opacity:1;fill-rule:nonzero;stroke:none;stroke-width:1.5;marker:none;visibility:visible;display:inline;overflow:visible;enable-background:accumulate" id="path4013" d="m 7.6875,-10.5 c 0.324621,-0.555404 0.775269,-1.045298 1.28125,-1.4375 L 7.125,-14.34375 C 6.291523,-13.7042 5.587787,-12.909825 5.0625,-12 l 2.625,1.5 z"/><path style="opacity:.57999998;color:#000;fill:#fff;fill-opacity:1;fill-rule:nonzero;stroke:none;stroke-width:1.5;marker:none;visibility:visible;display:inline;overflow:visible;enable-background:accumulate" id="path4015" d="m 9.5,-12.3125 c 0.556993,-0.32555 1.176477,-0.535706 1.84375,-0.625 l -0.375,-3 c -1.041587,0.137128 -2.058925,0.474713 -2.96875,1 l 1.5,2.625 z"/><path id="path4017" d="m 12,-13 c 0.680001,0 1.315279,0.16038 1.90625,0.40625 l 1.15625,-2.8125 C 14.091895,-15.808288 13.050575,-16 12,-16 l 0,3 z" style="opacity:.63999999;color:#000;fill:#fff;fill-opacity:1;fill-rule:nonzero;stroke:none;stroke-width:1.5;marker:none;visibility:visible;display:inline;overflow:visible;enable-background:accumulate"/><path id="path4019" d="m 14.5,-12.3125 c 0.555404,0.324621 1.045298,0.775269 1.4375,1.28125 L 18.34375,-12.875 C 17.7042,-13.708477 16.909825,-14.412213 16,-14.9375 l -1.5,2.625 z" style="opacity:.7;color:#000;fill:#fff;fill-opacity:1;fill-rule:nonzero;stroke:none;stroke-width:1.5;marker:none;visibility:visible;display:inline;overflow:visible;enable-background:accumulate"/><path id="path4021" d="m 16.3125,-10.5 c 0.32555,0.556993 0.535706,1.176477 0.625,1.84375 l 3,-0.375 c -0.137128,-1.041587 -0.474713,-2.058925 -1,-2.96875 l -2.625,1.5 z" style="opacity:.76000001;color:#000;fill:#fff;fill-opacity:1;fill-rule:nonzero;stroke:none;stroke-width:1.5;marker:none;visibility:visible;display:inline;overflow:visible;enable-background:accumulate"/></g><g id="g4023" transform="matrix(0.60876143,-0.79335334,0.79335334,0.60876143,83.041691,50.390332)"><path id="path4025" d="m 17,-8 c 0,0.680001 -0.16038,1.315279 -0.40625,1.90625 l 2.8125,1.15625 C 19.808288,-5.908105 20,-6.949425 20,-8 l -3,0 z" style="opacity:.81999972;color:#000;fill:#fff;fill-opacity:1;fill-rule:nonzero;stroke:none;stroke-width:1.5;marker:none;visibility:visible;display:inline;overflow:visible;enable-background:accumulate"/><path id="path4027" d="m 16.3125,-5.5 c -0.324621,0.555404 -0.775269,1.045298 -1.28125,1.4375 L 16.875,-1.65625 C 17.708477,-2.2958 18.412213,-3.090175 18.9375,-4 l -2.625,-1.5 z" style="opacity:.87999998;color:#000;fill:#fff;fill-opacity:1;fill-rule:nonzero;stroke:none;stroke-width:1.5;marker:none;visibility:visible;display:inline;overflow:visible;enable-background:accumulate"/><path id="path4029" d="m 14.5,-3.6875 c -0.556993,0.32555 -1.176477,0.535706 -1.84375,0.625 l 0.375,3 c 1.041587,-0.137128 2.058925,-0.474713 2.96875,-1 l -1.5,-2.625 z" style="opacity:.93999999;color:#000;fill:#fff;fill-opacity:1;fill-rule:nonzero;stroke:none;stroke-width:1.5;marker:none;visibility:visible;display:inline;overflow:visible;enable-background:accumulate"/><path style="color:#000;fill:#fff;fill-opacity:1;fill-rule:nonzero;stroke:none;stroke-width:1.5;marker:none;visibility:visible;display:inline;overflow:visible;enable-background:accumulate" id="path4031" d="m 12,-3 c -0.680001,0 -1.315279,-0.16038 -1.90625,-0.40625 L 8.9375,-0.59375 C 9.908105,-0.191712 10.949425,0 12,0 l 0,-3 z"/><path style="opacity:.33999999;color:#000;fill:#fff;fill-opacity:1;fill-rule:nonzero;stroke:none;stroke-width:1.5;marker:none;visibility:visible;display:inline;overflow:visible;enable-background:accumulate" id="path4033" d="M 9.5,-3.6875 C 8.944596,-4.012121 8.454702,-4.462769 8.0625,-4.96875 L 5.65625,-3.125 C 6.2958,-2.291523 7.090175,-1.587787 8,-1.0625 l 1.5,-2.625 z"/><path style="opacity:.4;color:#000;fill:#fff;fill-opacity:1;fill-rule:nonzero;stroke:none;stroke-width:1.5;marker:none;visibility:visible;display:inline;overflow:visible;enable-background:accumulate" id="path4035" d="M 7.6875,-5.5 C 7.36195,-6.056993 7.151794,-6.676477 7.0625,-7.34375 l -3,0.375 c 0.137128,1.041587 0.474713,2.058925 1,2.96875 l 2.625,-1.5 z"/><path id="path4037" d="M 7,-8 C 7,-8.680001 7.16038,-9.315279 7.40625,-9.90625 L 4.59375,-11.0625 C 4.191712,-10.091895 4,-9.050575 4,-8 l 3,0 z" style="opacity:.46000001;color:#000;fill:#fff;fill-opacity:1;fill-rule:nonzero;stroke:none;stroke-width:1.5;marker:none;visibility:visible;display:inline;overflow:visible;enable-background:accumulate"/><path id="path4039" d="m 7.6875,-10.5 c 0.324621,-0.555404 0.775269,-1.045298 1.28125,-1.4375 L 7.125,-14.34375 C 6.291523,-13.7042 5.587787,-12.909825 5.0625,-12 l 2.625,1.5 z" style="opacity:.51999996;color:#000;fill:#fff;fill-opacity:1;fill-rule:nonzero;stroke:none;stroke-width:1.5;marker:none;visibility:visible;display:inline;overflow:visible;enable-background:accumulate"/><path id="path4041" d="m 9.5,-12.3125 c 0.556993,-0.32555 1.176477,-0.535706 1.84375,-0.625 l -0.375,-3 c -1.041587,0.137128 -2.058925,0.474713 -2.96875,1 l 1.5,2.625 z" style="opacity:.57999998;color:#000;fill:#fff;fill-opacity:1;fill-rule:nonzero;stroke:none;stroke-width:1.5;marker:none;visibility:visible;display:inline;overflow:visible;enable-background:accumulate"/><path style="opacity:.63999999;color:#000;fill:#fff;fill-opacity:1;fill-rule:nonzero;stroke:none;stroke-width:1.5;marker:none;visibility:visible;display:inline;overflow:visible;enable-background:accumulate" id="path4043" d="m 12,-13 c 0.680001,0 1.315279,0.16038 1.90625,0.40625 l 1.15625,-2.8125 C 14.091895,-15.808288 13.050575,-16 12,-16 l 0,3 z"/><path style="opacity:.7;color:#000;fill:#fff;fill-opacity:1;fill-rule:nonzero;stroke:none;stroke-width:1.5;marker:none;visibility:visible;display:inline;overflow:visible;enable-background:accumulate" id="path4045" d="m 14.5,-12.3125 c 0.555404,0.324621 1.045298,0.775269 1.4375,1.28125 L 18.34375,-12.875 C 17.7042,-13.708477 16.909825,-14.412213 16,-14.9375 l -1.5,2.625 z"/><path style="opacity:.76000001;color:#000;fill:#fff;fill-opacity:1;fill-rule:nonzero;stroke:none;stroke-width:1.5;marker:none;visibility:visible;display:inline;overflow:visible;enable-background:accumulate" id="path4047" d="m 16.3125,-10.5 c 0.32555,0.556993 0.535706,1.176477 0.625,1.84375 l 3,-0.375 c -0.137128,-1.041587 -0.474713,-2.058925 -1,-2.96875 l -2.625,1.5 z"/></g><g id="g3827" transform="translate(0,20)"><path style="opacity:.8199999;color:#000;fill:#fff;fill-opacity:1;fill-rule:nonzero;stroke:none;stroke-width:1.5;marker:none;visibility:visible;display:inline;overflow:visible;enable-background:accumulate" id="path3013" d="m 17,-8 c 0,0.680001 -0.16038,1.315279 -0.40625,1.90625 l 2.8125,1.15625 C 19.808288,-5.908105 20,-6.949425 20,-8 l -3,0 z"/><path style="opacity:.87999998;color:#000;fill:#fff;fill-opacity:1;fill-rule:nonzero;stroke:none;stroke-width:1.5;marker:none;visibility:visible;display:inline;overflow:visible;enable-background:accumulate" id="path3029" d="m 16.3125,-5.5 c -0.324621,0.555404 -0.775269,1.045298 -1.28125,1.4375 L 16.875,-1.65625 C 17.708477,-2.2958 18.412213,-3.090175 18.9375,-4 l -2.625,-1.5 z"/><path style="opacity:.93999999;color:#000;fill:#fff;fill-opacity:1;fill-rule:nonzero;stroke:none;stroke-width:1.5;marker:none;visibility:visible;display:inline;overflow:visible;enable-background:accumulate" id="path3031" d="m 14.5,-3.6875 c -0.556993,0.32555 -1.176477,0.535706 -1.84375,0.625 l 0.375,3 c 1.041587,-0.137128 2.058925,-0.474713 2.96875,-1 l -1.5,-2.625 z"/><path id="path3041" d="m 12,-3 c -0.680001,0 -1.315279,-0.16038 -1.90625,-0.40625 L 8.9375,-0.59375 C 9.908105,-0.191712 10.949425,0 12,0 l 0,-3 z" style="color:#000;fill:#fff;fill-opacity:1;fill-rule:nonzero;stroke:none;stroke-width:1.5;marker:none;visibility:visible;display:inline;overflow:visible;enable-background:accumulate"/><path id="path3043" d="M 9.5,-3.6875 C 8.944596,-4.012121 8.454702,-4.462769 8.0625,-4.96875 L 5.65625,-3.125 C 6.2958,-2.291523 7.090175,-1.587787 8,-1.0625 l 1.5,-2.625 z" style="opacity:.33999999;color:#000;fill:#fff;fill-opacity:1;fill-rule:nonzero;stroke:none;stroke-width:1.5;marker:none;visibility:visible;display:inline;overflow:visible;enable-background:accumulate"/><path id="path3045" d="M 7.6875,-5.5 C 7.36195,-6.056993 7.151794,-6.676477 7.0625,-7.34375 l -3,0.375 c 0.137128,1.041587 0.474713,2.058925 1,2.96875 l 2.625,-1.5 z" style="opacity:.4;color:#000;fill:#fff;fill-opacity:1;fill-rule:nonzero;stroke:none;stroke-width:1.5;marker:none;visibility:visible;display:inline;overflow:visible;enable-background:accumulate"/><path style="opacity:.46000001;color:#000;fill:#fff;fill-opacity:1;fill-rule:nonzero;stroke:none;stroke-width:1.5;marker:none;visibility:visible;display:inline;overflow:visible;enable-background:accumulate" id="path3047" d="M 7,-8 C 7,-8.680001 7.16038,-9.315279 7.40625,-9.90625 L 4.59375,-11.0625 C 4.191712,-10.091895 4,-9.050575 4,-8 l 3,0 z"/><path style="opacity:.51999996;color:#000;fill:#fff;fill-opacity:1;fill-rule:nonzero;stroke:none;stroke-width:1.5;marker:none;visibility:visible;display:inline;overflow:visible;enable-background:accumulate" id="path3049" d="m 7.6875,-10.5 c 0.324621,-0.555404 0.775269,-1.045298 1.28125,-1.4375 L 7.125,-14.34375 C 6.291523,-13.7042 5.587787,-12.909825 5.0625,-12 l 2.625,1.5 z"/><path style="opacity:.57999998;color:#000;fill:#fff;fill-opacity:1;fill-rule:nonzero;stroke:none;stroke-width:1.5;marker:none;visibility:visible;display:inline;overflow:visible;enable-background:accumulate" id="path3051" d="m 9.5,-12.3125 c 0.556993,-0.32555 1.176477,-0.535706 1.84375,-0.625 l -0.375,-3 c -1.041587,0.137128 -2.058925,0.474713 -2.96875,1 l 1.5,2.625 z"/><path id="path3053" d="m 12,-13 c 0.680001,0 1.315279,0.16038 1.90625,0.40625 l 1.15625,-2.8125 C 14.091895,-15.808288 13.050575,-16 12,-16 l 0,3 z" style="opacity:.63999999;color:#000;fill:#fff;fill-opacity:1;fill-rule:nonzero;stroke:none;stroke-width:1.5;marker:none;visibility:visible;display:inline;overflow:visible;enable-background:accumulate"/><path id="path3055" d="m 14.5,-12.3125 c 0.555404,0.324621 1.045298,0.775269 1.4375,1.28125 L 18.34375,-12.875 C 17.7042,-13.708477 16.909825,-14.412213 16,-14.9375 l -1.5,2.625 z" style="opacity:.7;color:#000;fill:#fff;fill-opacity:1;fill-rule:nonzero;stroke:none;stroke-width:1.5;marker:none;visibility:visible;display:inline;overflow:visible;enable-background:accumulate"/><path id="path3057" d="m 16.3125,-10.5 c 0.32555,0.556993 0.535706,1.176477 0.625,1.84375 l 3,-0.375 c -0.137128,-1.041587 -0.474713,-2.058925 -1,-2.96875 l -2.625,1.5 z" style="opacity:.76000001;color:#000;fill:#fff;fill-opacity:1;fill-rule:nonzero;stroke:none;stroke-width:1.5;marker:none;visibility:visible;display:inline;overflow:visible;enable-background:accumulate"/></g><g id="g3867" transform="matrix(0.79335334,0.60876143,-0.60876143,0.79335334,21.609668,11.04169)"><path id="path3869" d="m 17,-8 c 0,0.680001 -0.16038,1.315279 -0.40625,1.90625 l 2.8125,1.15625 C 19.808288,-5.908105 20,-6.949425 20,-8 l -3,0 z" style="opacity:.81999972;color:#000;fill:#fff;fill-opacity:1;fill-rule:nonzero;stroke:none;stroke-width:1.5;marker:none;visibility:visible;display:inline;overflow:visible;enable-background:accumulate"/><path id="path3871" d="m 16.3125,-5.5 c -0.324621,0.555404 -0.775269,1.045298 -1.28125,1.4375 L 16.875,-1.65625 C 17.708477,-2.2958 18.412213,-3.090175 18.9375,-4 l -2.625,-1.5 z" style="opacity:.87999998;color:#000;fill:#fff;fill-opacity:1;fill-rule:nonzero;stroke:none;stroke-width:1.5;marker:none;visibility:visible;display:inline;overflow:visible;enable-background:accumulate"/><path id="path3873" d="m 14.5,-3.6875 c -0.556993,0.32555 -1.176477,0.535706 -1.84375,0.625 l 0.375,3 c 1.041587,-0.137128 2.058925,-0.474713 2.96875,-1 l -1.5,-2.625 z" style="opacity:.93999999;color:#000;fill:#fff;fill-opacity:1;fill-rule:nonzero;stroke:none;stroke-width:1.5;marker:none;visibility:visible;display:inline;overflow:visible;enable-background:accumulate"/><path style="color:#000;fill:#fff;fill-opacity:1;fill-rule:nonzero;stroke:none;stroke-width:1.5;marker:none;visibility:visible;display:inline;overflow:visible;enable-background:accumulate" id="path3875" d="m 12,-3 c -0.680001,0 -1.315279,-0.16038 -1.90625,-0.40625 L 8.9375,-0.59375 C 9.908105,-0.191712 10.949425,0 12,0 l 0,-3 z"/><path style="opacity:.33999999;color:#000;fill:#fff;fill-opacity:1;fill-rule:nonzero;stroke:none;stroke-width:1.5;marker:none;visibility:visible;display:inline;overflow:visible;enable-background:accumulate" id="path3877" d="M 9.5,-3.6875 C 8.944596,-4.012121 8.454702,-4.462769 8.0625,-4.96875 L 5.65625,-3.125 C 6.2958,-2.291523 7.090175,-1.587787 8,-1.0625 l 1.5,-2.625 z"/><path style="opacity:.4;color:#000;fill:#fff;fill-opacity:1;fill-rule:nonzero;stroke:none;stroke-width:1.5;marker:none;visibility:visible;display:inline;overflow:visible;enable-background:accumulate" id="path3879" d="M 7.6875,-5.5 C 7.36195,-6.056993 7.151794,-6.676477 7.0625,-7.34375 l -3,0.375 c 0.137128,1.041587 0.474713,2.058925 1,2.96875 l 2.625,-1.5 z"/><path id="path3881" d="M 7,-8 C 7,-8.680001 7.16038,-9.315279 7.40625,-9.90625 L 4.59375,-11.0625 C 4.191712,-10.091895 4,-9.050575 4,-8 l 3,0 z" style="opacity:.46000001;color:#000;fill:#fff;fill-opacity:1;fill-rule:nonzero;stroke:none;stroke-width:1.5;marker:none;visibility:visible;display:inline;overflow:visible;enable-background:accumulate"/><path id="path3883" d="m 7.6875,-10.5 c 0.324621,-0.555404 0.775269,-1.045298 1.28125,-1.4375 L 7.125,-14.34375 C 6.291523,-13.7042 5.587787,-12.909825 5.0625,-12 l 2.625,1.5 z" style="opacity:.51999996;color:#000;fill:#fff;fill-opacity:1;fill-rule:nonzero;stroke:none;stroke-width:1.5;marker:none;visibility:visible;display:inline;overflow:visible;enable-background:accumulate"/><path id="path3885" d="m 9.5,-12.3125 c 0.556993,-0.32555 1.176477,-0.535706 1.84375,-0.625 l -0.375,-3 c -1.041587,0.137128 -2.058925,0.474713 -2.96875,1 l 1.5,2.625 z" style="opacity:.57999998;color:#000;fill:#fff;fill-opacity:1;fill-rule:nonzero;stroke:none;stroke-width:1.5;marker:none;visibility:visible;display:inline;overflow:visible;enable-background:accumulate"/><path style="opacity:.63999999;color:#000;fill:#fff;fill-opacity:1;fill-rule:nonzero;stroke:none;stroke-width:1.5;marker:none;visibility:visible;display:inline;overflow:visible;enable-background:accumulate" id="path3887" d="m 12,-13 c 0.680001,0 1.315279,0.16038 1.90625,0.40625 l 1.15625,-2.8125 C 14.091895,-15.808288 13.050575,-16 12,-16 l 0,3 z"/><path style="opacity:.7;color:#000;fill:#fff;fill-opacity:1;fill-rule:nonzero;stroke:none;stroke-width:1.5;marker:none;visibility:visible;display:inline;overflow:visible;enable-background:accumulate" id="path3889" d="m 14.5,-12.3125 c 0.555404,0.324621 1.045298,0.775269 1.4375,1.28125 L 18.34375,-12.875 C 17.7042,-13.708477 16.909825,-14.412213 16,-14.9375 l -1.5,2.625 z"/><path style="opacity:.76000001;color:#000;fill:#fff;fill-opacity:1;fill-rule:nonzero;stroke:none;stroke-width:1.5;marker:none;visibility:visible;display:inline;overflow:visible;enable-background:accumulate" id="path3891" d="m 16.3125,-10.5 c 0.32555,0.556993 0.535706,1.176477 0.625,1.84375 l 3,-0.375 c -0.137128,-1.041587 -0.474713,-2.058925 -1,-2.96875 l -2.625,1.5 z"/></g><g id="g3893" transform="matrix(0,1,-1,0,52,0)"><path style="opacity:.81999972;color:#000;fill:#fff;fill-opacity:1;fill-rule:nonzero;stroke:none;stroke-width:1.5;marker:none;visibility:visible;display:inline;overflow:visible;enable-background:accumulate" id="path3895" d="m 17,-8 c 0,0.680001 -0.16038,1.315279 -0.40625,1.90625 l 2.8125,1.15625 C 19.808288,-5.908105 20,-6.949425 20,-8 l -3,0 z"/><path style="opacity:.87999998;color:#000;fill:#fff;fill-opacity:1;fill-rule:nonzero;stroke:none;stroke-width:1.5;marker:none;visibility:visible;display:inline;overflow:visible;enable-background:accumulate" id="path3897" d="m 16.3125,-5.5 c -0.324621,0.555404 -0.775269,1.045298 -1.28125,1.4375 L 16.875,-1.65625 C 17.708477,-2.2958 18.412213,-3.090175 18.9375,-4 l -2.625,-1.5 z"/><path style="opacity:.93999999;color:#000;fill:#fff;fill-opacity:1;fill-rule:nonzero;stroke:none;stroke-width:1.5;marker:none;visibility:visible;display:inline;overflow:visible;enable-background:accumulate" id="path3899" d="m 14.5,-3.6875 c -0.556993,0.32555 -1.176477,0.535706 -1.84375,0.625 l 0.375,3 c 1.041587,-0.137128 2.058925,-0.474713 2.96875,-1 l -1.5,-2.625 z"/><path id="path3901" d="m 12,-3 c -0.680001,0 -1.315279,-0.16038 -1.90625,-0.40625 L 8.9375,-0.59375 C 9.908105,-0.191712 10.949425,0 12,0 l 0,-3 z" style="color:#000;fill:#fff;fill-opacity:1;fill-rule:nonzero;stroke:none;stroke-width:1.5;marker:none;visibility:visible;display:inline;overflow:visible;enable-background:accumulate"/><path id="path3903" d="M 9.5,-3.6875 C 8.944596,-4.012121 8.454702,-4.462769 8.0625,-4.96875 L 5.65625,-3.125 C 6.2958,-2.291523 7.090175,-1.587787 8,-1.0625 l 1.5,-2.625 z" style="opacity:.33999999;color:#000;fill:#fff;fill-opacity:1;fill-rule:nonzero;stroke:none;stroke-width:1.5;marker:none;visibility:visible;display:inline;overflow:visible;enable-background:accumulate"/><path id="path3905" d="M 7.6875,-5.5 C 7.36195,-6.056993 7.151794,-6.676477 7.0625,-7.34375 l -3,0.375 c 0.137128,1.041587 0.474713,2.058925 1,2.96875 l 2.625,-1.5 z" style="opacity:.4;color:#000;fill:#fff;fill-opacity:1;fill-rule:nonzero;stroke:none;stroke-width:1.5;marker:none;visibility:visible;display:inline;overflow:visible;enable-background:accumulate"/><path style="opacity:.46000001;color:#000;fill:#fff;fill-opacity:1;fill-rule:nonzero;stroke:none;stroke-width:1.5;marker:none;visibility:visible;display:inline;overflow:visible;enable-background:accumulate" id="path3907" d="M 7,-8 C 7,-8.680001 7.16038,-9.315279 7.40625,-9.90625 L 4.59375,-11.0625 C 4.191712,-10.091895 4,-9.050575 4,-8 l 3,0 z"/><path style="opacity:.51999996;color:#000;fill:#fff;fill-opacity:1;fill-rule:nonzero;stroke:none;stroke-width:1.5;marker:none;visibility:visible;display:inline;overflow:visible;enable-background:accumulate" id="path3909" d="m 7.6875,-10.5 c 0.324621,-0.555404 0.775269,-1.045298 1.28125,-1.4375 L 7.125,-14.34375 C 6.291523,-13.7042 5.587787,-12.909825 5.0625,-12 l 2.625,1.5 z"/><path style="opacity:.57999998;color:#000;fill:#fff;fill-opacity:1;fill-rule:nonzero;stroke:none;stroke-width:1.5;marker:none;visibility:visible;display:inline;overflow:visible;enable-background:accumulate" id="path3911" d="m 9.5,-12.3125 c 0.556993,-0.32555 1.176477,-0.535706 1.84375,-0.625 l -0.375,-3 c -1.041587,0.137128 -2.058925,0.474713 -2.96875,1 l 1.5,2.625 z"/><path id="path3913" d="m 12,-13 c 0.680001,0 1.315279,0.16038 1.90625,0.40625 l 1.15625,-2.8125 C 14.091895,-15.808288 13.050575,-16 12,-16 l 0,3 z" style="opacity:.63999999;color:#000;fill:#fff;fill-opacity:1;fill-rule:nonzero;stroke:none;stroke-width:1.5;marker:none;visibility:visible;display:inline;overflow:visible;enable-background:accumulate"/><path id="path3915" d="m 14.5,-12.3125 c 0.555404,0.324621 1.045298,0.775269 1.4375,1.28125 L 18.34375,-12.875 C 17.7042,-13.708477 16.909825,-14.412213 16,-14.9375 l -1.5,2.625 z" style="opacity:.7;color:#000;fill:#fff;fill-opacity:1;fill-rule:nonzero;stroke:none;stroke-width:1.5;marker:none;visibility:visible;display:inline;overflow:visible;enable-background:accumulate"/><path id="path3917" d="m 16.3125,-10.5 c 0.32555,0.556993 0.535706,1.176477 0.625,1.84375 l 3,-0.375 c -0.137128,-1.041587 -0.474713,-2.058925 -1,-2.96875 l -2.625,1.5 z" style="opacity:.76000001;color:#000;fill:#fff;fill-opacity:1;fill-rule:nonzero;stroke:none;stroke-width:1.5;marker:none;visibility:visible;display:inline;overflow:visible;enable-background:accumulate"/></g><g id="g3919" transform="matrix(-0.60876143,0.79335334,-0.79335334,-0.60876143,84.958311,-2.390332)"><path id="path3921" d="m 17,-8 c 0,0.680001 -0.16038,1.315279 -0.40625,1.90625 l 2.8125,1.15625 C 19.808288,-5.908105 20,-6.949425 20,-8 l -3,0 z" style="opacity:.81999972;color:#000;fill:#fff;fill-opacity:1;fill-rule:nonzero;stroke:none;stroke-width:1.5;marker:none;visibility:visible;display:inline;overflow:visible;enable-background:accumulate"/><path id="path3923" d="m 16.3125,-5.5 c -0.324621,0.555404 -0.775269,1.045298 -1.28125,1.4375 L 16.875,-1.65625 C 17.708477,-2.2958 18.412213,-3.090175 18.9375,-4 l -2.625,-1.5 z" style="opacity:.87999998;color:#000;fill:#fff;fill-opacity:1;fill-rule:nonzero;stroke:none;stroke-width:1.5;marker:none;visibility:visible;display:inline;overflow:visible;enable-background:accumulate"/><path id="path3925" d="m 14.5,-3.6875 c -0.556993,0.32555 -1.176477,0.535706 -1.84375,0.625 l 0.375,3 c 1.041587,-0.137128 2.058925,-0.474713 2.96875,-1 l -1.5,-2.625 z" style="opacity:.93999999;color:#000;fill:#fff;fill-opacity:1;fill-rule:nonzero;stroke:none;stroke-width:1.5;marker:none;visibility:visible;display:inline;overflow:visible;enable-background:accumulate"/><path style="color:#000;fill:#fff;fill-opacity:1;fill-rule:nonzero;stroke:none;stroke-width:1.5;marker:none;visibility:visible;display:inline;overflow:visible;enable-background:accumulate" id="path3927" d="m 12,-3 c -0.680001,0 -1.315279,-0.16038 -1.90625,-0.40625 L 8.9375,-0.59375 C 9.908105,-0.191712 10.949425,0 12,0 l 0,-3 z"/><path style="opacity:.33999999;color:#000;fill:#fff;fill-opacity:1;fill-rule:nonzero;stroke:none;stroke-width:1.5;marker:none;visibility:visible;display:inline;overflow:visible;enable-background:accumulate" id="path3929" d="M 9.5,-3.6875 C 8.944596,-4.012121 8.454702,-4.462769 8.0625,-4.96875 L 5.65625,-3.125 C 6.2958,-2.291523 7.090175,-1.587787 8,-1.0625 l 1.5,-2.625 z"/><path style="opacity:.4;color:#000;fill:#fff;fill-opacity:1;fill-rule:nonzero;stroke:none;stroke-width:1.5;marker:none;visibility:visible;display:inline;overflow:visible;enable-background:accumulate" id="path3931" d="M 7.6875,-5.5 C 7.36195,-6.056993 7.151794,-6.676477 7.0625,-7.34375 l -3,0.375 c 0.137128,1.041587 0.474713,2.058925 1,2.96875 l 2.625,-1.5 z"/><path id="path3933" d="M 7,-8 C 7,-8.680001 7.16038,-9.315279 7.40625,-9.90625 L 4.59375,-11.0625 C 4.191712,-10.091895 4,-9.050575 4,-8 l 3,0 z" style="opacity:.46000001;color:#000;fill:#fff;fill-opacity:1;fill-rule:nonzero;stroke:none;stroke-width:1.5;marker:none;visibility:visible;display:inline;overflow:visible;enable-background:accumulate"/><path id="path3935" d="m 7.6875,-10.5 c 0.324621,-0.555404 0.775269,-1.045298 1.28125,-1.4375 L 7.125,-14.34375 C 6.291523,-13.7042 5.587787,-12.909825 5.0625,-12 l 2.625,1.5 z" style="opacity:.51999996;color:#000;fill:#fff;fill-opacity:1;fill-rule:nonzero;stroke:none;stroke-width:1.5;marker:none;visibility:visible;display:inline;overflow:visible;enable-background:accumulate"/><path id="path3937" d="m 9.5,-12.3125 c 0.556993,-0.32555 1.176477,-0.535706 1.84375,-0.625 l -0.375,-3 c -1.041587,0.137128 -2.058925,0.474713 -2.96875,1 l 1.5,2.625 z" style="opacity:.57999998;color:#000;fill:#fff;fill-opacity:1;fill-rule:nonzero;stroke:none;stroke-width:1.5;marker:none;visibility:visible;display:inline;overflow:visible;enable-background:accumulate"/><path style="opacity:.63999999;color:#000;fill:#fff;fill-opacity:1;fill-rule:nonzero;stroke:none;stroke-width:1.5;marker:none;visibility:visible;display:inline;overflow:visible;enable-background:accumulate" id="path3939" d="m 12,-13 c 0.680001,0 1.315279,0.16038 1.90625,0.40625 l 1.15625,-2.8125 C 14.091895,-15.808288 13.050575,-16 12,-16 l 0,3 z"/><path style="opacity:.7;color:#000;fill:#fff;fill-opacity:1;fill-rule:nonzero;stroke:none;stroke-width:1.5;marker:none;visibility:visible;display:inline;overflow:visible;enable-background:accumulate" id="path3941" d="m 14.5,-12.3125 c 0.555404,0.324621 1.045298,0.775269 1.4375,1.28125 L 18.34375,-12.875 C 17.7042,-13.708477 16.909825,-14.412213 16,-14.9375 l -1.5,2.625 z"/><path style="opacity:.76000001;color:#000;fill:#fff;fill-opacity:1;fill-rule:nonzero;stroke:none;stroke-width:1.5;marker:none;visibility:visible;display:inline;overflow:visible;enable-background:accumulate" id="path3943" d="m 16.3125,-10.5 c 0.32555,0.556993 0.535706,1.176477 0.625,1.84375 l 3,-0.375 c -0.137128,-1.041587 -0.474713,-2.058925 -1,-2.96875 l -2.625,1.5 z"/></g></g></svg>